<?xml version="1.0" standalone="no"?>
<!DOCTYPE svg PUBLIC "-//W3C//DTD SVG 20010904//EN"
 "http://www.w3.org/TR/2001/REC-SVG-20010904/DTD/svg10.dtd">
<svg version="1.0" xmlns="http://www.w3.org/2000/svg"
 width="162.000000pt" height="197.000000pt" viewBox="0 0 162.000000 197.000000"
 preserveAspectRatio="xMidYMid meet">

<g transform="translate(0.000000,197.000000) scale(0.100000,-0.100000)"
fill="#000000" stroke="none">
<path d="M40 985 l0 -915 354 0 c195 0 361 3 370 6 12 5 16 21 16 65 0 32 -4
59 -9 59 -5 0 -15 23 -22 51 -7 28 -19 53 -26 56 -7 3 -15 21 -19 40 -4 21
-14 37 -24 40 -9 3 -23 20 -30 38 -7 19 -19 36 -25 39 -7 2 -18 26 -25 53 -8
26 -17 50 -21 53 -4 3 -12 56 -17 119 -7 86 -13 116 -25 122 -8 5 -18 23 -22
40 -4 17 -13 33 -21 36 -8 3 -14 19 -14 39 0 33 -14 46 -23 22 -3 -7 -6 -3 -6
10 -1 12 -5 22 -10 22 -15 0 -35 155 -22 176 9 17 10 16 11 -7 0 -15 7 -29 15
-33 11 -4 15 2 15 26 0 40 22 162 30 168 4 3 15 38 25 78 9 39 21 72 25 72 5
0 12 9 15 21 4 11 18 24 31 29 13 5 24 14 24 19 0 5 14 12 30 16 17 4 30 11
30 16 0 5 29 9 65 9 37 0 65 -4 65 -10 0 -5 9 -10 20 -10 11 0 20 5 20 10 0 6
14 10 30 10 17 0 30 -4 30 -10 0 -5 7 -10 15 -10 7 0 18 -6 22 -13 4 -8 16
-16 26 -20 9 -4 20 -14 24 -23 3 -9 17 -28 29 -42 13 -14 24 -29 24 -34 0 -5
7 -16 15 -24 8 -9 18 -27 21 -42 4 -15 12 -32 19 -37 7 -6 18 -51 24 -100 7
-50 16 -91 22 -93 12 -5 12 -72 -1 -72 -5 0 -10 -9 -10 -20 0 -11 5 -20 10
-20 14 0 12 -19 -4 -35 -7 -8 -16 -36 -20 -64 -4 -28 -10 -51 -14 -51 -9 0
-42 -70 -42 -88 0 -7 -3 -12 -8 -12 -8 0 -42 -142 -42 -178 0 -13 -6 -30 -14
-37 -7 -8 -17 -39 -21 -69 -3 -31 -11 -56 -16 -56 -5 0 -9 -9 -9 -20 0 -11 4
-20 8 -20 10 0 35 -141 28 -161 -2 -8 -7 -44 -10 -81 l-7 -68 301 0 300 0 0
915 0 915 -765 0 -765 0 0 -915z m1510 205 c0 -627 -2 -700 -16 -700 -27 0
-104 22 -104 30 0 4 -20 13 -45 20 -40 11 -45 16 -45 41 0 20 -12 42 -40 70
-22 23 -40 45 -40 50 0 5 -5 9 -11 9 -17 0 -38 32 -39 58 0 43 22 112 36 112
19 0 17 16 -4 37 -39 39 -46 68 -32 131 9 43 9 68 1 98 -15 53 -14 97 1 88 8
-5 9 -2 3 12 -4 10 -10 29 -12 42 -3 12 -9 22 -14 22 -5 0 -9 14 -9 31 0 39
-29 139 -40 139 -4 0 -11 12 -14 26 -7 27 -23 47 -106 133 -45 46 -95 71 -142
71 -15 0 -28 5 -30 10 -4 13 -168 15 -177 3 -3 -5 -20 -15 -38 -22 -18 -7 -35
-21 -38 -30 -3 -9 -15 -23 -27 -31 -29 -20 -108 -100 -108 -111 0 -4 -6 -14
-12 -21 -20 -21 -38 -56 -38 -73 0 -8 -4 -15 -8 -15 -18 0 -35 -106 -25 -161
14 -81 16 -246 4 -254 -6 -3 -11 -12 -11 -18 0 -7 4 -6 10 3 8 13 10 12 10 -2
0 -10 6 -18 13 -19 9 0 9 -2 -1 -6 -6 -2 -12 -11 -12 -19 0 -10 -8 -13 -27 -9
-27 5 -27 5 -5 -6 28 -15 28 -30 -2 -60 -13 -13 -27 -39 -31 -56 -3 -18 -12
-33 -19 -33 -14 0 -56 -45 -56 -59 0 -5 4 -11 9 -13 8 -2 15 -109 12 -179 -1
-9 -16 -23 -33 -30 -18 -7 -39 -19 -46 -26 -7 -7 -20 -13 -28 -13 -8 0 -14 -5
-14 -10 0 -6 -11 -15 -25 -20 -14 -5 -25 -14 -25 -20 0 -5 -9 -10 -20 -10 -18
0 -20 -8 -23 -162 -1 -90 -4 245 -5 745 l-2 907 750 0 750 0 0 -700z m-1087
-275 c-3 -9 -8 -14 -10 -11 -3 3 -2 9 2 15 9 16 15 13 8 -4z m744 9 c-3 -3
-12 -4 -19 -1 -8 3 -5 6 6 6 11 1 17 -2 13 -5z m69 -287 c35 -37 49 -67 31
-67 -28 1 -41 21 -46 73 -1 4 -7 7 -15 7 -8 0 -18 5 -21 10 -15 24 23 7 51
-23z"/>
<path d="M948 1313 c7 -3 16 -2 19 1 4 3 -2 6 -13 5 -11 0 -14 -3 -6 -6z"/>
<path d="M898 1303 c6 -2 18 -2 25 0 6 3 1 5 -13 5 -14 0 -19 -2 -12 -5z"/>
<path d="M670 1290 c0 -5 5 -10 10 -10 6 0 10 5 10 10 0 6 -4 10 -10 10 -5 0
-10 -4 -10 -10z"/>
<path d="M892 1214 c-11 -12 -10 -17 3 -30 9 -9 19 -13 23 -9 4 4 1 10 -5 12
-20 7 -15 22 7 20 10 -1 17 -3 15 -5 -5 -5 20 -32 29 -32 3 0 6 9 6 20 0 21
16 28 22 9 2 -5 11 -7 20 -4 15 6 15 9 3 21 -18 19 -106 18 -123 -2z"/>
<path d="M631 1203 c12 -3 15 -11 11 -25 -5 -20 -2 -21 37 -15 49 6 61 14 41
27 -11 7 -16 5 -18 -5 -2 -8 -10 -15 -18 -15 -17 0 -19 26 -1 33 6 3 -6 5 -28
5 -22 0 -33 -2 -24 -5z"/>
<path d="M588 1193 c-25 -6 -22 -20 6 -25 19 -4 22 -1 18 14 -2 10 -5 17 -6
17 0 -1 -9 -3 -18 -6z"/>
<path d="M850 1020 c0 -5 7 -10 15 -10 8 0 15 5 15 10 0 6 -7 10 -15 10 -8 0
-15 -4 -15 -10z"/>
<path d="M823 883 c20 -2 54 -2 75 0 20 2 3 4 -38 4 -41 0 -58 -2 -37 -4z"/>
</g>
</svg>
